<?xml version="1.0" encoding="utf-8"?>
<!-- Generator: Adobe Illustrator 27.7.0, SVG Export Plug-In . SVG Version: 6.00 Build 0)  -->
<svg version="1.1" id="레이어_1" xmlns="http://www.w3.org/2000/svg" xmlns:xlink="http://www.w3.org/1999/xlink" x="0px"
	 y="0px" viewBox="0 0 856 806" style="enable-background:new 0 0 856 806;" xml:space="preserve">
<style type="text/css">
	.st0{fill:#9B9B9B;}
</style>
<path class="st0" d="M825.83,285.47c1.19-0.87,2.19-2.15,2.79-3.99c0.66-2.04,0.46-4.29-0.56-6.19c-2.16-4.03-4.43-4.91-34.7-13.38
	c-9.85-2.76-23.08-6.46-27.04-8.09c-0.78-0.71-1.73-1.27-2.79-1.61c-2.81-0.91-5.76-0.13-7.75,1.79c-7.71-2.27-15.05-4.38-21.2-6.01
	c-11.74-3.11-20.75-5.49-25.02-1.08c-1.78-0.52-3.51-1.02-5.17-1.5c-15.46-4.41-25.83-7.36-30.62-2.97
	c-17.66-5.07-23.36-5.4-26.94-3.59c-2.04,1.03-3.54,2.77-4.23,4.89c-0.58,1.8-0.52,3.7,0.15,5.46c-5.29-1.48-10.79-3.01-16.45-4.58
	c0.4-0.42,0.76-0.87,1.06-1.38c3.48,0.27,8.54-0.22,10.29-5.61c0.19-0.59,0.31-1.19,0.37-1.79c1.82-0.79,3.41-2.24,4.24-4.8
	c0.12-0.36,0.21-0.71,0.27-1.08c2.1-0.7,4-2.18,4.95-5.09c0.23-0.7,0.36-1.42,0.39-2.14c1.44-0.86,2.64-2.24,3.34-4.38
	c0.21-0.65,0.34-1.31,0.38-1.97c1.53-0.87,2.83-2.28,3.56-4.52c0.3-0.93,0.43-1.89,0.39-2.84c1.05-0.85,1.92-2.05,2.46-3.74
	c0.2-0.61,0.32-1.23,0.37-1.85c1.56-0.84,2.91-2.25,3.65-4.53c0.67-2.05,0.46-4.33-0.57-6.25c-0.52-0.97-1.02-1.77-1.98-2.56
	c0.3-1.75,0.01-3.55-0.85-5.16c-1.57-2.93-3.42-4.47-16.92-8.62c0.15-1.56-0.16-3.15-0.91-4.55c-1.74-3.23-3.58-4.38-18.96-8.77
	c0.38-1.79,0.11-3.71-0.76-5.32c-1.85-3.45-4.03-4.06-16.1-7.42c-3-0.84-7.36-2.05-9.16-2.68c-0.58-0.39-1.22-0.7-1.91-0.93
	c-4.02-1.31-8.34,0.86-9.7,4.85c-2.94,0.3-5.76,1.45-7.14,4.84c-3.34,0.08-6.11,1.17-7.62,4.37c-2.78,0.24-5.79,1.35-7.28,4.83
	c0,0-0.01,0-0.01,0c-3.35,0-7.42,0.99-8.94,5.69c-0.08,0.23-0.14,0.47-0.19,0.71c-2.14,0.71-4.07,2.19-5.01,5.1
	c-0.05,0.16-0.1,0.31-0.14,0.47c-2.46,0.55-4.81,2-5.9,5.34c-0.13,0.39-0.22,0.79-0.29,1.19c-1.97,0.74-3.73,2.2-4.62,4.94
	c-0.11,0.33-0.17,0.67-0.23,1.01c-0.06-0.13-0.11-0.26-0.18-0.38c-0.42-0.78-0.88-1.48-1.57-2.16c0.33-1.77,0.05-3.58-0.82-5.21
	c-0.1-0.19-0.2-0.37-0.31-0.55c0.09-0.21,0.17-0.43,0.24-0.66c0.67-2.05,0.46-4.32-0.57-6.24c-0.28-0.51-0.56-0.98-0.91-1.43
	c0.02-0.05,0.03-0.1,0.05-0.16c0.67-2.05,0.46-4.32-0.57-6.24c-0.53-0.99-1.08-1.81-2.13-2.64c0.51-1.93,0.26-4.02-0.69-5.79
	c-0.47-0.88-0.92-1.61-1.72-2.32c0.52-1.94,0.28-4.05-0.68-5.84c-0.7-1.3-1.35-2.28-3.14-3.36c0.39-1.83,0.12-3.77-0.77-5.43
	c-0.71-1.33-1.37-2.31-3.27-3.41c0.19-1.6-0.12-3.25-0.89-4.69c-0.28-0.52-0.55-0.99-0.89-1.43c0.49-1.92,0.25-3.99-0.7-5.75
	c-0.89-1.66-1.85-2.81-4.74-4.16c0.43-1.86,0.17-3.84-0.74-5.54c-0.96-1.79-1.92-2.93-5.33-4.39c0.25-1.67-0.04-3.43-0.84-4.92
	c-1.17-2.19-2.24-3.28-7.31-5.04c0.29-1.71,0-3.52-0.82-5.05c-1.92-3.58-4.1-4.18-18.25-8.1c-3.66-1.01-8.98-2.49-11.08-3.23
	c-0.63-0.45-1.33-0.81-2.1-1.06c-3.71-1.2-7.66,0.54-9.32,3.94c-4.14-0.2-8.14,0.6-9.72,5.46c-0.22,0.68-0.34,1.39-0.37,2.11
	c-1.29,0.86-2.31,2.19-2.95,4.16c-0.45,1.38-0.5,2.85-0.17,4.25c-0.71,0.79-1.29,1.8-1.71,3.09c-0.2,0.62-0.32,1.26-0.37,1.91
	c-1.37,1.06-2.14,2.46-2.58,3.79c-0.52,1.6-0.51,3.34,0.02,4.93c-0.27,0.49-0.5,1.02-0.69,1.6c-0.44,1.34-0.5,2.78-0.2,4.16
	c-0.66,0.78-1.17,1.71-1.53,2.82c-0.43,1.33-0.5,2.77-0.21,4.13c-0.62,0.76-1.1,1.66-1.44,2.72c-0.68,2.09-0.48,4.31,0.57,6.26
	c0.3,0.56,0.61,1.07,1.02,1.57c-0.02,0.07-0.05,0.14-0.07,0.21c-0.46,1.41-0.5,2.93-0.15,4.36c-0.55,0.72-0.98,1.56-1.3,2.53
	c-0.65,1.99-0.5,4.1,0.42,5.98c-0.19,0.38-0.35,0.79-0.49,1.23c-0.67,2.05-0.46,4.32,0.56,6.23c0.37,0.68,0.74,1.29,1.3,1.88
	c-0.34,1.57-0.19,3.22,0.42,4.72c-0.17,0.36-0.32,0.74-0.46,1.15c-0.67,2.06-0.46,4.35,0.58,6.28c0.4,0.75,0.82,1.41,1.44,2.04
	c-0.58,1.81-0.48,3.8,0.26,5.56c-0.17,0.35-0.31,0.72-0.44,1.12c-0.55,1.7-0.52,3.48,0.06,5.15c-0.5,0.67-0.92,1.48-1.23,2.44
	c-0.74,2.29-0.5,4.76,0.68,6.96c0.04,0.07,0.07,0.13,0.11,0.2c-0.16,0.33-0.29,0.67-0.4,1.02c-0.71,2.17-0.53,4.5,0.48,6.62
	c-0.18,0.37-0.34,0.75-0.47,1.15c-0.76,2.34-0.51,4.87,0.7,7.13c0.09,0.16,0.19,0.32,0.29,0.48c-1.21-0.37-2.62-0.77-4.32-1.25
	c-1.51-0.42-3.66-1.02-4.73-1.37c-0.45-0.26-0.94-0.48-1.46-0.65c-4.06-1.32-8.42,0.9-9.74,4.96c-0.65,2-0.45,4.22,0.54,6.07
	c0.3,0.56,0.61,1.04,0.97,1.46c-0.01,0.03-0.02,0.07-0.03,0.1c-0.65,1.99-0.45,4.18,0.53,6.03c0.17,0.32,0.34,0.62,0.52,0.89
	c-0.07,0.19-0.14,0.39-0.21,0.59c-0.71,2.2-0.49,4.56,0.63,6.64c0.69,1.28,1.68,2.48,3.56,3.79c-0.27,1.77,0.04,3.59,0.93,5.23
	c0.02,0.03,0.03,0.06,0.05,0.09c-0.09,0.2-0.16,0.41-0.23,0.63c-0.74,2.27-0.5,4.71,0.67,6.87c0.49,0.92,1.23,1.82,2.29,2.75
	c-4.92-1.7-9.77-3.36-14.52-4.98c0.03-0.08,0.06-0.16,0.08-0.24c0.68-2.1,0.48-4.34-0.58-6.31c-1.04-1.93-2.19-3.26-6.6-5.09
	c0.34-1.78,0.05-3.66-0.82-5.29c-0.9-1.67-1.82-2.84-4.93-4.3c0.16-1.58-0.15-3.22-0.89-4.61c-0.86-1.61-1.71-2.68-4.31-3.91
	c0.21-1.62-0.09-3.32-0.86-4.76c-1.89-3.53-4.22-4.39-20.37-8.94c0.33-1.14,0.36-2.33,0.15-3.48c1.23-0.2,2.13-0.55,2.97-0.97
	c1.73-0.87,3.08-2.23,3.89-3.9c0.75-0.18,1.4-0.41,1.98-0.71c2.15-1.07,3.74-2.88,4.46-5.1c0.29-0.89,0.43-1.81,0.42-2.73
	c0.61-0.59,1.13-1.26,1.54-2c1.14-0.18,2.08-0.48,2.9-0.89c2.17-1.08,3.76-2.9,4.48-5.13c0.71-2.18,0.49-4.53-0.62-6.6
	c-0.64-1.19-1.52-2.3-3.16-3.51c0.16-1.68-0.19-3.37-1.02-4.93c-2.14-3.98-8.53-7.63-28.95-14.3c-0.13-1.02-0.45-2.01-0.96-2.95
	c-0.91-1.7-2.55-3.29-5.91-5.11c0.02-0.07,0.06-0.12,0.08-0.19c0.73-2.24,0.5-4.65-0.65-6.79c-3.01-5.58-14.12-10.42-59.8-23.54
	c-0.05-1.24-0.39-2.47-1-3.61c-1.43-2.67-3.85-4.72-13.99-8.35c-0.06-0.63-0.2-1.26-0.41-1.87c1.46-0.93,2.63-2.33,3.2-4.11
	c0.36-1.12,0.46-2.33,0.3-3.51c0.87-0.83,1.58-1.95,2.06-3.44c0.19-0.57,0.3-1.17,0.35-1.77c1.18-0.86,2.12-2.14,2.72-4
	c0.49-1.51,0.49-3.2,0.03-4.74c0.3-0.53,0.57-1.12,0.78-1.79c0.13-0.41,0.23-0.83,0.29-1.25c2.21-0.67,3.95-2.16,4.88-5.01
	c0.28-0.87,0.4-1.79,0.37-2.71c1.04-0.85,1.88-2.06,2.43-3.76c0.24-0.73,0.36-1.51,0.37-2.29c1.22-0.85,2.21-2.14,2.82-4.03
	c0.28-0.85,0.4-1.75,0.37-2.64c0.89-0.83,1.61-1.95,2.09-3.44c0.1-0.31,0.18-0.62,0.24-0.94c2.03-0.71,3.68-2.16,4.57-4.87
	c3.55-0.12,6.75-1.31,8.1-5.48c0.22-0.66,0.34-1.36,0.37-2.05c1.08-0.84,1.97-2.04,2.52-3.75c0.65-2,0.45-4.24-0.54-6.09
	c-1.81-3.37-3.74-3.91-14.5-6.92c-2.45-0.68-5.99-1.68-7.53-2.2c-0.54-0.34-1.12-0.62-1.75-0.82c-3.26-1.06-6.71,0.17-8.63,2.8
	c-4.04-0.5-9.85-1.11-12.26,4c-5.29-0.61-10.63-0.52-12.55,5.19c-2.71,0.36-5.06,1.57-6.32,4.61c-3.11,0.27-5.87,1.6-7.11,5.4
	c-0.04,0.12-0.08,0.25-0.11,0.38c-2.43,0.61-4.43,2.1-5.43,5.18c-0.04,0.14-0.09,0.28-0.12,0.42c-2.43,0.61-4.38,2.11-5.38,5.17
	c-0.23,0.71-0.35,1.46-0.37,2.21c-1.57,0.82-2.8,2.22-3.53,4.47c-0.06,0.18-0.11,0.37-0.16,0.56c-1.89,0.75-3.4,2.21-4.24,4.81
	c-0.45,1.4-0.49,2.95-0.12,4.39c-0.36,0.59-0.67,1.26-0.92,2.03c-0.23,0.71-0.35,1.47-0.37,2.23c-0.1,0.06-0.18,0.14-0.28,0.2
	c-3.49-2.29-11.55-4.73-34.86-11.17c-10.59-2.92-24.81-6.85-29.03-8.62c-0.81-0.78-1.82-1.4-2.96-1.77
	c-4.06-1.32-8.42,0.9-9.74,4.96c-0.12,0.35-0.2,0.72-0.27,1.08c-1.55,0.76-2.7,1.96-3.45,3.58c-2.97,0.38-5.81,1.81-7.05,5.62
	c-0.69,2.12-0.49,4.39,0.57,6.39c-0.2,0.4-0.37,0.83-0.53,1.3c-0.71,2.19-0.49,4.54,0.63,6.62c0.62,1.15,1.56,2.24,3.14,3.38
	c-0.37,1.74-0.12,3.57,0.71,5.17c1.54,2.94,3.44,3.52,8.05,4.94c0.98,0.3,1.95,0.59,2.5,0.78c0.23,0.1,0.46,0.19,0.7,0.27
	c0.59,0.19,1.19,0.3,1.79,0.35c0.07,0.15,0.14,0.3,0.21,0.45c1.32,2.45,3.66,4.54,11.65,7.75c-0.99,0.95-1.75,2.11-2.2,3.41
	c-0.16,0.07-0.31,0.14-0.46,0.21c-2.16,1.07-3.75,2.89-4.48,5.12c-0.34,1.04-0.46,2.12-0.38,3.19c-0.38,0.41-0.72,0.85-1.01,1.32
	c-1.56,0.13-2.76,0.47-3.77,0.97c-1.89,0.94-3.34,2.45-4.15,4.32c-0.03,0-0.06,0-0.08,0c-2.21,0-3.8,0.34-5.02,0.95
	c-2.06,1.04-3.58,2.79-4.28,4.93c-0.04,0.12-0.08,0.24-0.11,0.36c-0.36,0.13-0.69,0.27-1,0.43c-2.06,1.05-3.59,2.8-4.28,4.95
	c-0.01,0.03-0.02,0.06-0.03,0.08c-2.8,0.54-5.25,2.08-6.39,5.58c-0.7,2.16-0.49,4.48,0.61,6.52c0.28,0.53,0.61,1.04,1.02,1.54
	c-0.68,2.15-0.45,4.45,0.64,6.48c0.23,0.43,0.49,0.85,0.8,1.26c-0.02,0.05-0.03,0.1-0.05,0.14c-0.14,0.44-0.25,0.89-0.32,1.35
	c-1.59,1.05-2.76,2.58-3.35,4.39c-0.42,1.3-0.51,2.65-0.28,3.97c-0.67,0.81-1.19,1.74-1.53,2.76c-0.7,2.15-0.48,4.46,0.6,6.49
	c0.13,0.25,0.28,0.49,0.44,0.74c-0.14,0.32-0.27,0.66-0.39,1.02c-0.71,2.19-0.49,4.53,0.62,6.59c0.02,0.04,0.05,0.08,0.07,0.12
	c-0.03,0.1-0.07,0.19-0.1,0.29c-0.81,2.48-0.53,5.18,0.77,7.59c0.22,0.4,0.46,0.81,0.74,1.22c-0.32,2.07,0.07,4.22,1.13,6.18
	c1.01,1.88,2.59,3.87,6.64,6.42c0.18,0.87,0.5,1.73,0.94,2.54c1.42,2.65,4.52,5.34,11.77,8.81c0.17,0.68,0.43,1.36,0.78,2
	c1.6,2.97,5.31,5.55,16.57,9.59c0.03,0.3,0.07,0.6,0.13,0.9c-0.51,0.63-0.93,1.34-1.25,2.1c-1.16,0.15-2.09,0.45-2.9,0.86
	c-1.16,0.59-2.15,1.4-2.92,2.39c-10.05-2.33-13.57-1.96-16.27-0.6c-0.09,0.04-0.17,0.09-0.26,0.13
	c-19.27-5.49-26.93-6.05-31.05-4.01c-0.9,0.44-1.7,1.02-2.38,1.69c-13.91-3.59-19.83-3.74-23.25-2.04
	c-0.83,0.41-1.58,0.94-2.23,1.56c-6.89-1.1-10.79-0.78-13.35,0.49c-1.43,0.71-2.62,1.73-3.49,2.97c-4.13-0.41-6.68-0.05-8.48,0.84
	c-1.57,0.78-2.83,1.96-3.68,3.4c-1.48,0.16-2.68,0.49-3.65,0.97c-1.7,0.84-3.07,2.12-3.95,3.69c-1.84,0.17-3.07,0.61-4.16,1.15
	c-1.41,0.7-2.59,1.71-3.45,2.93c-2.83-0.11-4.74,0.26-6.18,0.97c-2.01,1-3.53,2.65-4.3,4.68c-0.33,0.12-0.63,0.25-0.92,0.39
	c-2.16,1.07-3.74,2.88-4.46,5.1c-0.06,0.17-0.11,0.34-0.15,0.52c-2.19,1.12-3.79,2.96-4.52,5.22c-0.46,1.4-0.53,2.87-0.24,4.3
	c-0.42,0.63-0.76,1.32-1,2.06c-0.71,2.18-0.49,4.52,0.62,6.58c0.44,0.81,0.98,1.58,1.79,2.36c-0.58,1.95-0.37,4.12,0.6,5.92
	c1.72,3.21,3.72,3.99,15.2,7.24c-0.26,1.64,0.01,3.34,0.79,4.83c0.68,1.3,1.45,2.15,2.49,2.81c-0.64,1.99-0.44,4.19,0.55,6.03
	c1.67,3.12,3.89,3.74,9.24,5.24c0.86,0.24,2.08,0.58,2.76,0.79c0.36,0.19,0.75,0.35,1.15,0.48c4.06,1.31,8.42-0.91,9.73-4.96
	c0.6-1.85,0.45-3.86-0.36-5.62c2.45,4.49,6.14,6.13,49.13,17.93c14.17,3.89,33.25,9.13,38.4,11.41c0.41,0.44,0.88,0.83,1.39,1.17
	c-3.67,0.02-6.3,1.2-7.81,3.59c-1.4-0.3-2.6-0.54-3.62-0.71c-5.41-0.9-9.14,0.14-11.11,3.11c-1.98-0.42-3.64-0.74-5.01-0.94
	c-2.51-0.38-10.16-1.53-12.4,5.37c-0.1,0.31-0.18,0.63-0.24,0.95c-1.94,0.79-3.32,2.17-4.15,4.15c-4.05,0.39-6,2.53-6.93,4.7
	c0,0-0.01,0-0.01,0c-5.51,0-7.7,2.9-8.56,5.54c-0.1,0.29-0.17,0.59-0.23,0.89c-1.65,0.76-2.95,2.09-3.76,4.22
	c-4.02,0.7-5.76,3.17-6.5,5.44c-0.23,0.71-0.36,1.44-0.38,2.18c-2.11,1.1-3.19,2.87-3.72,4.51c0,0.01-0.01,0.02-0.01,0.02
	c-3.58,0.24-6.29,1.7-7.54,5.58c-0.25,0.76-0.37,1.55-0.38,2.35c-0.96,0.86-1.72,2.04-2.23,3.63c-0.19,0.58-0.3,1.17-0.35,1.77
	c-1.71,0.82-3.02,2.27-3.79,4.66c-0.23,0.7-0.35,1.42-0.38,2.15c-2,1.09-3.03,2.82-3.55,4.43c-0.42,1.3-0.49,2.69-0.23,4.02
	c-0.47,0.67-0.86,1.47-1.17,2.41c-0.2,0.62-0.32,1.27-0.36,1.92c-1.44,0.84-2.58,2.22-3.28,4.35c-0.08,0.25-0.15,0.51-0.21,0.77
	c-1.66,0.82-2.98,2.26-3.75,4.61c-0.54,1.65-0.5,3.45,0.07,5.08c-0.43,0.63-0.8,1.38-1.09,2.26c-0.23,0.7-0.35,1.43-0.37,2.17
	c-1.66,0.81-2.98,2.21-3.73,4.54c-0.58,1.79-0.48,3.79,0.26,5.51c-0.31,0.53-0.58,1.13-0.8,1.82c-0.13,0.39-0.22,0.79-0.28,1.19
	c-2.3,0.66-4.19,2.15-5.15,5.1c-0.65,2.01-0.44,4.3,0.56,6.15c0.57,1.05,1.18,1.87,2.13,2.6c-0.01,0.04-0.02,0.07-0.03,0.11
	c-0.65,2-0.45,4.23,0.54,6.08c1.77,3.31,3.78,3.87,13.39,6.56c2.21,0.62,5.39,1.51,6.82,1.99c0.52,0.33,1.09,0.59,1.71,0.79
	c0.79,0.26,1.6,0.38,2.38,0.38c2.77,0,5.38-1.51,6.75-3.97c4.47,0.3,10.49,0.66,12.6-5.07c3.86-0.01,7.5-1.05,8.96-5.55
	c0.13-0.39,0.22-0.79,0.28-1.2c1.91-0.76,3.46-2.21,4.31-4.82c0.26-0.81,0.38-1.66,0.37-2.51c1.47-0.83,2.65-2.19,3.34-4.34
	c0.07-0.21,0.13-0.43,0.18-0.65c2.41-0.61,4.36-2.07,5.37-5.02c2.21-0.58,4.02-1.95,5.05-4.66c4.85-0.34,6.84-3.07,7.64-5.53
	c0.13-0.39,0.22-0.8,0.29-1.2c1.48-0.8,2.67-2.12,3.41-4.21c3.66-0.18,6.53-1.59,7.82-5.59c0.05-0.15,0.1-0.31,0.14-0.47
	c3.72-0.74,5.36-3.11,6.07-5.29c0.11-0.33,0.19-0.67,0.25-1.01c2.1-1.08,3.17-2.86,3.71-4.52c0.04-0.13,0.08-0.27,0.12-0.41
	c4.19-0.59,5.99-3.11,6.74-5.42c0.07-0.23,0.14-0.45,0.19-0.68c2.68-0.5,4.76-1.95,5.86-5.05c3.56-0.71,5.21-2.96,5.96-5.09
	c3.44-0.74,5.07-2.88,5.84-4.96c3.07-0.36,5.24-1.71,6.49-4.04c4.17,0.23,7.46-0.69,9.19-4.21c6.1,0.67,8.88-1.72,10.13-4.29
	c4.36,0.48,7.49-0.47,9.34-2.83c3.42,0.82,6.11,1.38,8.16,1.71c2.43,0.38,9.6,1.52,12.21-4.45c3.98-0.25,6.07-2.08,7.15-4.1
	c4.5,0.44,8.11-0.25,10.06-3.67c0.67,0.12,1.28,0.22,1.83,0.3c5.17,0.75,8.73-0.35,10.61-3.29c7.2,1.62,13.88,2.81,17.05-1.74
	c0.22,0.05,0.43,0.11,0.65,0.16c3.55,0.86,6.22,1.43,8.17,1.74c3.18,0.51,5.52,0.23,7.26-0.47c3.44,0.67,6.07,0.97,8.15,0.97
	c2.32,0,3.94-0.37,5.23-1.01c0.96-0.48,1.8-1.1,2.51-1.85c5.7,0.87,8.91,0.56,11.06-0.51c0.6-0.3,1.16-0.66,1.67-1.07
	c7.43,1.27,11.6,1.01,14.23-0.29c1.34-0.66,2.46-1.6,3.31-2.73c3.92,0.3,6.45-0.09,8.28-1c0.52-0.26,1.02-0.56,1.47-0.9
	c11.5,2.43,15.17,1.64,17.86,0.32c2.29-1.13,3.96-3.03,4.72-5.36c0.31-0.95,0.45-1.93,0.43-2.91c0.86-0.81,1.54-1.77,2.02-2.85
	c0.98-0.18,1.8-0.45,2.52-0.81c2.17-1.08,3.77-2.9,4.49-5.13c0.73-2.24,0.5-4.65-0.63-6.8c0.18-0.36,0.33-0.74,0.45-1.12
	c0.47-1.44,0.55-2.96,0.24-4.43c0.2-0.32,0.37-0.65,0.53-1c0.64,0.92,1.5,1.81,2.8,2.76c-0.09,1.55,0.26,3.12,1.03,4.56
	c0.93,1.73,2.64,3.37,6.07,5.24c0.02,1.34,0.38,2.68,1.04,3.92c0.87,1.63,2.43,3.17,5.45,4.9c-0.12,1.63,0.23,3.28,1.05,4.78
	c0.29,0.53,0.64,1.05,1.08,1.57c-0.02,0.05-0.03,0.1-0.05,0.15c-0.71,2.19-0.49,4.55,0.63,6.62c0.99,1.84,2.79,3.53,6.69,5.51
	c-0.19,1.68,0.15,3.4,0.98,4.95c1.46,2.73,4.91,5.23,14.24,8.84c0.07,0.84,0.27,1.68,0.6,2.48c-0.15,0.32-0.29,0.66-0.4,1.01
	c-0.7,2.16-0.5,4.47,0.57,6.52c-0.21,0.4-0.38,0.82-0.53,1.26c-0.57,1.75-0.54,3.61,0.06,5.34c-0.32,0.54-0.58,1.11-0.78,1.72
	c-0.71,2.19-0.49,4.53,0.62,6.6c0.34,0.64,0.78,1.26,1.37,1.87c-0.71,2.23-0.47,4.63,0.67,6.76c0.29,0.54,0.67,1.08,1.15,1.63
	c-0.38,1.97-0.05,4.02,0.95,5.86c0.18,0.33,0.39,0.66,0.63,0.99c-0.01,0.03-0.02,0.06-0.03,0.09c-0.45,1.39-0.54,2.84-0.26,4.26
	c-0.63,0.79-1.11,1.68-1.43,2.66c-0.41,1.28-0.52,2.61-0.33,3.91c-0.84,0.91-1.47,1.98-1.86,3.17c-0.38,1.18-0.5,2.41-0.35,3.61
	c-9.2-1.88-13.98-1.74-16.85-0.31c-0.66,0.33-1.27,0.73-1.82,1.18c-10.67-2.54-15.61-2.51-18.62-1.02
	c-0.07,0.03-0.14,0.07-0.21,0.11c-1.26-0.41-2.5-0.81-3.73-1.2c-49.77-15.95-59.77-16.2-64.81-14.13
	c-34.77-10.51-41.6-9.76-45.88-7.66c-1.27,0.62-2.35,1.48-3.19,2.51c-4.85-0.3-7.26,0.4-9.14,1.33c-2.41,1.18-4.17,3.17-4.96,5.6
	c-0.6,1.85-0.59,3.82,0.01,5.7c-0.31,0.54-0.57,1.12-0.77,1.72c-0.73,2.25-0.55,4.68,0.5,6.89c-0.08,0.2-0.16,0.41-0.23,0.62
	c-0.76,2.34-0.51,4.86,0.7,7.11c0.34,0.64,0.79,1.28,1.36,1.93c-0.56,2.2-0.26,4.53,0.87,6.62c0.44,0.82,1.04,1.64,1.86,2.47
	c-0.26,1.89,0.11,3.84,1.06,5.61c0.93,1.73,2.36,3.52,6.25,5.85c0.15,1.08,0.5,2.15,1.04,3.16c0.97,1.79,2.68,3.57,6.01,5.6
	c-0.07,1.61,0.31,3.23,1.11,4.73c0.94,1.74,2.33,3.49,6.23,5.76c0.01,1.43,0.38,2.86,1.1,4.18c1.18,2.2,3.04,4.34,9.88,7.56
	c0.09,1.14,0.42,2.26,0.99,3.31c1.54,2.87,4.01,4.92,15.87,8.93c-0.03,1.4,0.3,2.81,0.99,4.1c1.34,2.48,3.2,4.22,11.68,7.25
	c-1.51,0.82-2.8,2.16-3.54,4.28c-2.97,0.19-6.24,1.3-7.75,5.04c-2.7,0.48-5.32,1.91-6.48,5.48c-0.68,2.1-0.48,4.34,0.58,6.31
	c0.27,0.51,0.57,0.98,0.94,1.44c-2.57-0.76-5.04-1.49-7.37-2.2c0.17-0.37,0.33-0.78,0.48-1.22c0.65-2,0.45-4.2-0.54-6.05
	c-0.83-1.54-1.71-2.47-3.32-3.28c0.24-1.33,0.13-2.71-0.33-3.99c0.46-0.64,0.82-1.39,1.12-2.3c0.23-0.72,0.36-1.47,0.37-2.22
	c1.16-0.86,1.96-2.02,2.51-3.74c0.64-1.99,0.45-4.16-0.52-6.01c-1.62-3.06-3.5-3.61-9.73-5.43c-1.28-0.37-3.11-0.91-3.99-1.2
	c-0.37-0.19-0.76-0.35-1.17-0.49c-4.06-1.32-8.42,0.91-9.73,4.97c-0.39,1.19-0.47,2.46-0.27,3.67c-0.59,0.71-1.05,1.58-1.4,2.67
	c-0.41,1.28-0.48,2.64-0.22,3.94c-0.79,0.78-1.35,1.74-1.77,3.04c-0.55,1.69-0.5,3.52,0.13,5.17c-0.27,0.49-0.51,1.03-0.71,1.65
	c-0.56,1.73-0.49,3.61,0.18,5.29c-0.42,0.62-0.76,1.36-1.04,2.24c-0.69,2.13-0.48,4.4,0.59,6.4c0.02,0.04,0.04,0.07,0.06,0.1
	c-0.21,0.41-0.39,0.85-0.54,1.33c-0.69,2.13-0.48,4.41,0.6,6.42c0.5,0.94,1.1,1.78,2.11,2.63c-0.35,1.83-0.06,3.71,0.85,5.4
	c0.39,0.72,0.81,1.37,1.43,2.01c-0.53,1.99-0.28,4.08,0.72,5.93c1,1.87,2.3,3.3,6.63,5.2c-0.07,1.45,0.25,2.91,0.96,4.24
	c1.26,2.35,2.85,3.91,10.57,6.66c-0.2,1.64,0.11,3.33,0.91,4.82c1.26,2.34,2.65,3.75,9.9,6.25c-0.18,1.59,0.13,3.24,0.88,4.65
	c2.02,3.76,4.35,4.52,24.99,10.27c5.76,1.61,14.21,3.96,17.09,5.05c0.7,0.55,1.5,0.98,2.39,1.27c0.79,0.26,1.6,0.38,2.39,0.38
	c2.37,0,4.62-1.1,6.08-2.96c0.99,0.22,1.94,0.44,2.83,0.63c7.79,1.69,15.85,3.44,18.29-4.08c0.28-0.87,0.41-1.78,0.38-2.69
	c1.15-0.84,2.06-2.07,2.66-3.78c2.5-0.59,4.86-2.07,5.95-5.4c0.05-0.16,0.1-0.33,0.14-0.49c2.13-0.71,4.04-2.2,4.98-5.12
	c0.04-0.12,0.07-0.23,0.11-0.35c2.1-0.69,3.96-2.15,4.92-4.97c0.32-0.04,0.64-0.1,0.95-0.17c-0.62,0.74-1.15,1.65-1.52,2.79
	c-0.27,0.82-0.4,1.66-0.4,2.49c-1.44,0.84-2.67,2.2-3.37,4.36c-0.58,1.78-0.52,3.66,0.14,5.39c-0.35,0.56-0.65,1.21-0.89,1.94
	c-0.29,0.88-0.42,1.79-0.4,2.69c-1.12,0.86-2.06,2.11-2.64,3.9c-0.39,1.21-0.49,2.46-0.31,3.68c-0.86,0.83-1.58,1.93-2.05,3.38
	c-0.2,0.61-0.32,1.23-0.37,1.86c-1.1,0.86-2.02,2.1-2.59,3.86c-0.38,1.18-0.49,2.41-0.31,3.6c-0.52,0.69-0.96,1.53-1.29,2.53
	c-0.61,1.87-0.51,3.85,0.27,5.64c-0.38,0.59-0.7,1.27-0.96,2.05c-0.38,1.16-0.48,2.35-0.33,3.52c-0.91,0.84-1.67,1.97-2.16,3.48
	c-0.36,1.09-0.46,2.25-0.33,3.38c-0.7,0.77-1.29,1.77-1.7,3.03c-0.28,0.85-0.4,1.75-0.38,2.64c-1.11,0.86-2.03,2.09-2.6,3.86
	c-0.32,0.98-0.44,1.98-0.38,2.98c-0.82,0.81-1.51,1.88-1.97,3.3c-0.46,1.41-0.5,2.92-0.15,4.35c-0.4,0.62-0.73,1.31-0.98,2.09
	c-0.28,0.86-0.41,1.77-0.38,2.67c-1.25,0.86-2.3,2.16-2.93,4.08c-0.34,1.04-0.45,2.13-0.35,3.21c-0.69,0.77-1.26,1.75-1.66,2.99
	c-0.45,1.38-0.51,2.81-0.21,4.19c-0.5,0.69-0.89,1.48-1.19,2.38c-0.38,1.18-0.49,2.4-0.32,3.59c-0.85,0.86-1.49,1.94-1.92,3.25
	c-0.5,1.53-0.52,3.13-0.09,4.64c-0.48,0.67-0.86,1.45-1.15,2.34c-0.68,2.09-0.48,4.31,0.57,6.26c0.23,0.43,0.47,0.83,0.75,1.21
	c-0.03,0.1-0.07,0.19-0.1,0.29c-0.17,0.53-0.29,1.08-0.34,1.63c-1.4,0.93-2.39,2.3-2.98,4.12c-0.66,2.04-0.46,4.3,0.56,6.21
	c0.19,0.36,0.38,0.69,0.59,1.01c-0.28,0.92-0.38,1.88-0.31,2.83c-0.81,0.82-1.46,1.91-1.92,3.32c-0.57,1.76-0.5,3.69,0.19,5.4
	c-0.39,0.61-0.71,1.32-0.98,2.13c-0.65,1.99-0.44,4.26,0.53,6.11c-0.26,0.49-0.5,1.03-0.69,1.64c-0.56,1.73-0.48,3.67,0.19,5.36
	c-0.4,0.61-0.75,1.33-1.02,2.16c-0.63,1.94-0.46,4.13,0.46,5.95c-0.31,0.53-0.58,1.12-0.8,1.8c-0.65,2-0.45,4.23,0.55,6.09
	c1.79,3.33,3.91,3.92,14.09,6.76c2.7,0.75,6.6,1.84,8.28,2.42c0.58,0.39,1.22,0.7,1.92,0.93c0.79,0.26,1.6,0.38,2.39,0.38
	c2.7,0,5.24-1.42,6.63-3.76c0.06,0.01,0.13,0.01,0.19,0.02c4.46,0.45,11.19,1.13,13.32-5.2c3.19-0.26,5.98-1.51,7.3-5.14
	c3.55-0.06,6.61-1.18,8.07-4.96c4.1,0.14,7.47-1.04,8.92-5.49c0-0.01,0-0.01,0-0.01c3.16-0.79,4.71-2.8,5.46-4.76
	c3.53-0.82,5.12-3.14,5.82-5.28c0.03-0.1,0.06-0.2,0.09-0.3c2.58-0.9,3.91-2.71,4.6-4.49c3.71-0.43,6.11-2.29,7.17-5.55
	c0.27-0.84,0.4-1.71,0.38-2.58c1.2-0.92,2.07-2.2,2.6-3.84c0.22-0.67,0.34-1.37,0.38-2.06c1.56-0.94,2.65-2.38,3.28-4.31
	c0.14-0.45,0.25-0.9,0.31-1.36c1.67-0.93,2.83-2.41,3.49-4.43c0.04-0.11,0.07-0.23,0.1-0.34c1.95-0.73,3.71-2.2,4.61-4.97
	c0.27-0.84,0.4-1.7,0.39-2.56c1.28-0.85,2.37-2.16,3.02-4.14c0.36-1.12,0.48-2.28,0.34-3.41c0.63-0.75,1.12-1.66,1.48-2.71
	c2.38-0.58,4.64-2.05,5.7-5.29c0.24-0.75,0.37-1.51,0.39-2.28c1.25-0.86,2.31-2.17,2.94-4.1c0.24-0.74,0.37-1.5,0.39-2.26
	c1.1-0.86,2.02-2.1,2.59-3.85c0.26-0.79,0.39-1.59,0.4-2.4c1.35-0.86,2.5-2.2,3.17-4.26c0.58-1.8,0.52-3.7-0.18-5.44
	c0.42-0.62,0.78-1.34,1.05-2.19c0.14-0.45,0.24-0.9,0.3-1.35c0.11,0.27,0.2,0.55,0.34,0.8c0.33,0.62,0.69,1.15,1.09,1.6
	c-0.52,1.73-0.4,3.6,0.3,5.26c-0.18,0.36-0.33,0.76-0.47,1.19c-0.65,1.99-0.45,4.19,0.53,6.04c0.27,0.51,0.55,0.95,0.86,1.34
	c-0.01,0.03-0.02,0.07-0.03,0.1c-0.07,0.2-0.12,0.41-0.17,0.62c-2.94,0.81-4.52,2.21-5.48,5.14c-0.65,1.99-0.45,4.2,0.53,6.05
	c0.04,0.07,0.08,0.14,0.11,0.21c-0.14,0.3-0.26,0.62-0.37,0.96c-0.65,2-0.45,4.22,0.54,6.07c1.73,3.23,3.85,3.83,11.75,6.05
	c1.61,0.45,3.93,1.1,5.04,1.47c0.46,0.26,0.95,0.48,1.47,0.65c0.79,0.26,1.59,0.38,2.38,0.38c3.19,0,6.17-2,7.28-5.15
	c2.55-0.51,5.11-1.83,6.25-5.32c0.65-1.99,0.45-4.2-0.53-6.05c-0.75-1.41-1.45-2.3-2.92-3.11c0.5-1.89,0.26-3.92-0.66-5.64
	c-0.31-0.58-0.63-1.07-0.99-1.5c0.54-1.66,0.49-3.46-0.11-5.08c0.23-0.43,0.43-0.92,0.6-1.45c0.65-1.99,0.45-4.18-0.53-6.03
	c-0.48-0.9-0.99-1.59-1.63-2.16c0.37-1.49,0.29-3.07-0.23-4.51c0.27-0.48,0.5-1.02,0.7-1.63c0.65-1.99,0.46-4.19-0.53-6.04
	c-0.2-0.38-0.4-0.72-0.62-1.03c0.04-0.11,0.08-0.22,0.11-0.33c0.65-1.99,0.45-4.18-0.53-6.03c-0.23-0.43-0.46-0.81-0.71-1.15
	c0.51-1.56,0.5-3.24,0-4.78c0.28-0.5,0.52-1.05,0.73-1.68c0.4-1.23,0.45-2.53,0.22-3.79c1.41,0.56,3.06,1.15,4.98,1.81
	c0.13,0.34,0.27,0.67,0.44,1c0.28,0.53,0.58,1.01,0.95,1.48c-0.53,1.97-0.28,4.05,0.7,5.88c0.59,1.1,1.24,2.02,2.56,2.96
	c-1.88,0.91-3.18,2.46-3.88,4.64c-0.65,2-0.45,4.23,0.54,6.09c1.82,3.39,3.83,3.96,14.99,7.09c1.39,0.39,3.12,0.88,4.65,1.32
	c0.16,0.64,0.39,1.26,0.71,1.85c0.89,1.65,1.88,2.8,4.7,4.13c-0.19,1.58,0.1,3.21,0.85,4.63c1.82,3.42,3.31,3.84,17.6,7.93
	c3.85,1.1,9.47,2.71,11.56,3.46c0.59,0.4,1.24,0.72,1.94,0.95c0.07,0.02,0.15,0.03,0.23,0.06c1.55,1.7,3.84,2.37,8.9,3.84
	c1.21,0.35,2.95,0.86,3.8,1.13c0.36,0.18,0.74,0.34,1.13,0.47c0.8,0.26,1.6,0.38,2.4,0.38c3.01,0,5.8-1.78,7.05-4.62
	c0.67,0.06,1.34,0.1,1.98,0.1c3.89,0,7.09-1.25,8.49-5.56c0.19-0.57,0.3-1.17,0.35-1.76c0.09,0,0.18,0.01,0.27,0.01
	c3.22,0,7.17-0.94,8.77-5.43c2.56-0.47,5.09-1.88,6.23-5.39c0.14-0.43,0.24-0.87,0.31-1.3c1.41-0.85,2.61-2.2,3.3-4.33
	c0.11-0.34,0.19-0.68,0.25-1.02c0.76-0.8,1.37-1.77,1.73-2.89c0.21-0.64,0.34-1.3,0.38-1.96c1.56-0.8,2.89-2.15,3.67-4.28
	c1.22-1.01,2.15-2.32,2.64-3.84c0.35-1.08,0.48-2.19,0.38-3.3c0.95-0.95,1.66-2.11,2.08-3.4c0.24-0.73,0.37-1.48,0.41-2.23
	c0.59-0.55,1.1-1.18,1.51-1.86c2.79,0.05,4.71-0.33,6.18-1.06c2.15-1.08,3.74-2.89,4.46-5.11c0.73-2.24,0.5-4.65-0.65-6.78
	c-0.56-1.04-1.42-2.06-2.74-3.11c1.79-1.06,3.1-2.68,3.73-4.63c0.71-2.18,0.49-4.52-0.62-6.59c-1.39-2.61-4.77-5.07-13.72-8.61
	c-0.13-1.01-0.45-2-0.95-2.94c-0.84-1.58-2.15-3.01-5.11-4.7c0.38-0.61,0.69-1.25,0.91-1.94c0.78-2.4,0.52-5-0.73-7.32
	c-2.06-3.82-7.36-7.64-22.44-13.46c0.44-0.66,0.79-1.38,1.04-2.14c0.76-2.35,0.51-4.88-0.7-7.14c-0.59-1.09-1.45-2.18-2.77-3.32
	c0.02-0.71-0.05-1.43-0.21-2.13c3.32,0.12,5.48-0.33,7.13-1.14c0.96-0.48,1.82-1.09,2.54-1.82c6.11,0.82,9.5,0.37,11.87-0.81
	c1.21-0.6,2.25-1.41,3.07-2.39c3.91,0.16,6.47-0.35,8.39-1.3c1.56-0.77,2.85-1.88,3.77-3.23c3.98,0.17,6.06-0.45,7.75-1.28
	c1.92-0.94,3.42-2.43,4.31-4.24c0.55-0.17,1.06-0.37,1.52-0.6c2.12-1.04,3.72-2.73,4.57-4.79c1.28-0.22,2.24-0.58,3.09-1.01
	c1.69-0.84,3.03-2.11,3.91-3.67c0.94-0.2,1.73-0.49,2.45-0.84c2.13-1.05,3.73-2.79,4.53-4.92c0.75-0.2,1.38-0.47,1.98-0.76
	c2.13-1.06,3.69-2.85,4.4-5.04c0.17-0.54,0.29-1.09,0.36-1.64c2.07-1.05,3.59-2.82,4.29-4.97c0.22-0.68,0.35-1.37,0.4-2.06
	c1.64-1.07,2.85-2.63,3.45-4.48c0.11-0.34,0.2-0.68,0.26-1.02c2.01-1.11,3.48-2.87,4.18-5c0.57-1.75,0.56-3.59-0.01-5.34
	c0.39-0.6,0.7-1.26,0.92-1.95c0.19-0.59,0.32-1.2,0.38-1.8c1.23-1.04,2.14-2.39,2.64-3.93c0.74-2.27,0.5-4.72-0.67-6.89
	c-0.01-0.01-0.02-0.02-0.02-0.04c0.05-0.12,0.11-0.24,0.15-0.36c0.65-2.01,0.45-4.24-0.55-6.1c-1.82-3.38-4-3.99-14.5-6.9
	c-2.53-0.7-6.19-1.72-7.79-2.26c-0.56-0.37-1.18-0.67-1.85-0.88c-2.41-0.79-4.92-0.32-6.84,1.04c-11.62-3.83-27.34-8.54-48.62-14.61
	c-0.02-0.5-0.09-1-0.2-1.49c0.54-0.73,0.96-1.54,1.25-2.42c0.68-2.11,0.51-4.36-0.49-6.37c0.23-0.43,0.43-0.89,0.58-1.37
	c0.71-2.19,0.49-4.53-0.62-6.6c-0.37-0.68-0.84-1.34-1.49-2c0.36-1.87,0.06-3.79-0.87-5.52c-0.64-1.2-1.5-2.29-3.15-3.46
	c0.24-1.72-0.08-3.48-0.93-5.08c-0.29-0.53-0.62-1.04-1.05-1.55c0.05-0.13,0.1-0.27,0.14-0.41c0.73-2.23,0.5-4.63-0.65-6.74
	c-0.69-1.28-1.65-2.47-3.4-3.75c0.34-1.89,0.02-3.84-0.93-5.6c-0.69-1.29-1.79-2.51-3.65-3.8c0.21-1.7-0.12-3.43-0.96-5
	c-0.63-1.18-1.52-2.28-3.19-3.46c0.15-1.62-0.18-3.27-0.99-4.76c-0.59-1.1-1.4-2.14-2.86-3.23c0.18-1.65-0.15-3.33-0.97-4.86
	c-0.38-0.71-0.85-1.4-1.52-2.08c0.31-1.68,0.09-3.42-0.64-5.01c0.33-0.54,0.6-1.13,0.8-1.75c0.72-2.21,0.49-4.58-0.63-6.68
	c-0.09-0.17-0.19-0.33-0.29-0.5c0.13-0.29,0.24-0.58,0.34-0.88c0.73-2.25,0.5-4.67-0.66-6.81c-1.18-2.19-3.5-4.23-8.6-6.68
	c4.36,0.2,7.22-0.32,9.31-1.34c2.46-1.2,4.25-3.23,5.06-5.7c0.55-1.71,0.58-3.51,0.11-5.25c3.06,0.92,5.86,1.73,8.42,2.43
	c0.82,0.4,1.51,0.77,2.07,1.11c0.89,1.8,2.48,3.25,4.53,3.92c0.79,0.26,1.6,0.38,2.39,0.38c1.96,0,3.85-0.76,5.26-2.07
	c6.27,1.06,9.72,0.78,11.99-0.34c2.16-1.07,3.74-2.88,4.46-5.1c0.75-2.3,0.51-4.77-0.68-6.97c-0.97-1.81-2.87-3.62-6.35-5.65
	c12.79,3.93,22.52,7.27,26.18,9.35c0.92,1.58,2.41,2.84,4.28,3.45c0.79,0.26,1.6,0.38,2.39,0.38c3.14,0,6.06-1.95,7.21-5.02
	c0.69,0.53,1.45,0.99,2.33,1.27c0.79,0.26,1.6,0.38,2.39,0.38c3.26,0,6.29-2.08,7.35-5.34c0.66-2.04,0.46-4.3-0.57-6.21
	c-2.09-3.9-4.29-4.77-29.44-11.74c-6.66-1.85-15.57-4.31-18.56-5.45c-0.07-0.06-0.16-0.1-0.23-0.15c0.19-0.64,0.31-1.29,0.34-1.94
	c4.95,1.46,9.73,2.89,14.21,4.27c9.68,3.23,18.1,5.99,25.45,8.33c3.84,1.41,6.7,2.62,8.34,3.55c0.93,1.53,2.39,2.75,4.22,3.34
	c2.39,0.78,4.87,0.33,6.79-1c19.64,5.63,27.03,6.2,30.96,4.24c0.52-0.26,1.02-0.57,1.47-0.91c9.87,2.62,16.22,3.71,20.51,3.71
	c2.55,0,4.38-0.39,5.77-1.08c0.84-0.41,1.59-0.94,2.24-1.55c11.3,2.51,14.66,1.82,17.27,0.52c0.99-0.49,1.87-1.14,2.59-1.92
	c6.69,0.88,9.46,0.16,11.6-0.9c1.73-0.86,3.12-2.16,4.02-3.75c2.41-0.13,3.92-0.65,5.2-1.28c2.31-1.14,4-3.06,4.76-5.41
	c0.77-2.37,0.52-4.94-0.71-7.23c-0.71-1.33-1.85-2.66-3.7-4.09c11.41,3.49,20.28,6.5,23.72,8.37c0.93,1.43,2.34,2.57,4.09,3.14
	c0.79,0.26,1.6,0.38,2.39,0.38c3.26,0,6.29-2.08,7.35-5.34c0.57-1.76,0.54-3.62-0.08-5.36c0.27-0.47,0.49-0.98,0.66-1.5
	c0.69-2.12,0.48-4.38-0.58-6.37c-0.32-0.59-0.68-1.15-1.16-1.7c0-0.01,0.01-0.03,0.01-0.04C825.78,287.54,825.9,286.5,825.83,285.47
	z M300.7,27.03C300.7,27.03,300.7,27.03,300.7,27.03c-0.03-0.08-0.06-0.16-0.09-0.24C300.64,26.87,300.67,26.95,300.7,27.03z
	 M150.96,91.63c0-0.12,0-0.24,0-0.37h0C150.96,91.38,150.96,91.51,150.96,91.63z M153.49,97.23c0.52,0.48,1.12,0.88,1.78,1.21
	C154.63,98.13,154.03,97.72,153.49,97.23z M63.05,468.9C63.05,468.9,63.05,468.9,63.05,468.9c0.07,0.19,0.14,0.37,0.22,0.55
	C63.19,469.27,63.11,469.09,63.05,468.9z M283.95,511.3C283.95,511.3,283.95,511.3,283.95,511.3c0.23-1.52,0-3.03-0.61-4.37
	C283.93,508.2,284.21,509.7,283.95,511.3z M370.32,769.69C370.32,769.69,370.32,769.69,370.32,769.69c0.02,0.07,0.05,0.14,0.07,0.21
	C370.36,769.83,370.34,769.76,370.32,769.69z M673.74,469.74c0.07,0.19,0.12,0.39,0.18,0.58c0,0,0,0-0.01,0
	C673.85,470.13,673.81,469.93,673.74,469.74z M535.43,217.89c0.25,0.44,0.51,0.85,0.83,1.25c-0.42-0.14-0.86-0.29-1.28-0.43
	C535.15,218.45,535.29,218.17,535.43,217.89z M599.08,152.62C599.08,152.62,599.08,152.62,599.08,152.62
	c-0.06-0.32-0.14-0.63-0.24-0.93C598.94,151.99,599.02,152.3,599.08,152.62z M471.29,90.77C471.29,90.77,471.29,90.77,471.29,90.77
	c-0.02-0.09-0.04-0.18-0.05-0.26C471.25,90.59,471.27,90.68,471.29,90.77z M433.43,218.95c0,0,0.01-0.01,0.01-0.01
	c0.15,0.89,0.15,1.86-0.06,2.86c0,0,0,0,0,0C433.57,220.84,433.58,219.87,433.43,218.95z M433.26,218.15c0,0-0.01,0-0.01,0
	c-0.17-0.62-0.42-1.22-0.74-1.77C432.82,216.92,433.08,217.51,433.26,218.15z M172,333.5c0.02,0.3,0.01,0.62-0.01,0.93
	c-0.01,0-0.02,0-0.03,0C171.98,334.12,172,333.81,172,333.5C171.99,333.5,171.99,333.5,172,333.5z M369.54,207.06
	c-0.01,0.25-0.02,0.51-0.06,0.77C369.52,207.56,369.53,207.31,369.54,207.06C369.54,207.06,369.54,207.06,369.54,207.06z
	 M63.22,301.94c0.98-0.33,1.82-0.72,2.52-1.21c-0.18,1.43,0.04,2.88,0.64,4.23C65.57,303.52,64.59,302.63,63.22,301.94z
	 M311.76,202.59c-0.57-1.06-1.32-2.04-2.61-3.06c0.31-1.7,0.09-3.45-0.67-5.06c0.01-0.02,0.03-0.05,0.04-0.08
	c2.69,0.11,4.27-0.33,5.72-1.06c0.59-0.3,1.13-0.65,1.62-1.06c6.1,1.96,11.91,3.79,17.31,5.45c5.86,1.8,10.89,3.28,15.23,4.5
	c-2.72,0.41-5.86,1.47-7.29,4.98c-2.68,0.27-4.96,1.33-6.33,3.95c-6.65-0.52-9.15,2.66-10.08,5.51c-0.16,0.5-0.27,1.02-0.33,1.54
	c-2.07,0.82-3.49,2.32-4.31,4.46c-0.1-1.13-0.42-2.24-0.98-3.29c-0.51-0.95-1.17-1.85-2.21-2.76c0.23-1.7-0.08-3.44-0.93-5.02
	c-0.66-1.23-1.52-2.33-3.27-3.52C312.99,206.22,312.69,204.31,311.76,202.59z M493.14,696.58c0,0.01-0.01,0.01-0.01,0.02
	c-0.02-0.54,0.03-1.1,0.14-1.68c0,0,0,0,0,0C493.17,695.48,493.12,696.03,493.14,696.58z M493.69,699.23
	C493.69,699.23,493.69,699.23,493.69,699.23c0.11,0.26,0.23,0.52,0.36,0.76C493.92,699.74,493.8,699.49,493.69,699.23z
	 M578.79,685.25c0,0,0.01,0,0.01,0c0.04,1.14,0.33,2.25,0.84,3.25C579.14,687.55,578.82,686.45,578.79,685.25z"/>
</svg>
